<svg xmlns="http://www.w3.org/2000/svg" width="64" height="64"><circle cx="32" cy="32" r="28" fill="#ffeb9b"/><circle cx="32" cy="32" r="21" fill="#f9dd8f"/><path fill="#8d6c9f" d="M32 6c14.336 0 26 11.664 26 26S46.336 58 32 58 6 46.336 6 32 17.664 6 32 6m0-2C16.536 4 4 16.536 4 32s12.536 28 28 28 28-12.536 28-28S47.464 4 32 4z"/><path fill="#fff8ee" d="m42.5 31.134-17-9.815a1 1 0 0 0-1.5.866v19.63a1 1 0 0 0 1.5.866l17-9.815a1 1 0 0 0 0-1.732z"/><path fill="#8d6c9f" d="M25 43.818c-.344 0-.688-.09-1-.271a1.98 1.98 0 0 1-1-1.732v-19.63a1.98 1.98 0 0 1 1-1.732 1.975 1.975 0 0 1 2 0l17 9.815c.626.361 1 1.009 1 1.732s-.374 1.371-1 1.732l-17 9.815a1.994 1.994 0 0 1-1 .271zm0-21.633v19.63L42 32l.5-.866L42 32l-17-9.815z"/><g fill="#8d6c9f"><path d="M53.596 37.162c-.063 0-.126-.006-.189-.018l-1.964-.376a.999.999 0 1 1 .377-1.963l1.964.376c.542.104.897.628.794 1.17a1.002 1.002 0 0 1-.982.811zM51.997 42.133a.99.99 0 0 1-.415-.091l-1.819-.832a1 1 0 1 1 .832-1.818l1.819.832a1 1 0 0 1-.417 1.909zM49.278 46.59a.998.998 0 0 1-.618-.214l-1.571-1.237a1 1 0 1 1 1.238-1.571l1.571 1.237a1 1 0 0 1-.62 1.785zM45.591 50.28c-.296 0-.589-.131-.787-.381l-1.237-1.571a1 1 0 1 1 1.572-1.237l1.237 1.571a1 1 0 0 1-.785 1.618zM41.134 52.998a1 1 0 0 1-.91-.584l-.832-1.819a1 1 0 0 1 1.818-.832l.832 1.819a1 1 0 0 1-.908 1.416zM36.161 54.595a1 1 0 0 1-.981-.812l-.377-1.964a1 1 0 0 1 1.965-.377l.377 1.964a1 1 0 0 1-.984 1.189z"/></g></svg>