<svg xmlns="http://www.w3.org/2000/svg" width="64" height="64"><path fill="#f7a1c8" d="M19 35h-4.3c-.4 0-.8.3-1 .7L8 53.9V57c0 .6.4 1 1 1h46c.6 0 1-.4 1-1V53.9l-5.7-18.2c-.1-.4-.5-.7-1-.7H45"/><path fill="#fbd" d="M32 3c-1.5 0-2.8.2-2.8.6-.8 2.2-12.3 38.3-12.3 39.2 0 3.5 6.8 7.2 15.1 7.2s15.1-3.7 15.1-7.2c0-.8-11.4-37-12.3-39.2 0-.4-1.3-.6-2.8-.6z"/><path fill="#fff8ee" d="M42.8 28.6c.9 3 1.8 5.9 2.5 8.2C43.5 39.6 38.2 42 32 42c-6.2 0-11.5-2.4-13.3-5.2.7-2.3 1.6-5.2 2.6-8.2C23.6 30.5 27.5 32 32 32c4.5 0 8.4-1.5 10.8-3.4zM28.8 5c.1-.3.2-.6.2-.8 0 .2-.1.5-.2.8zM40 19.8c-2.4.8-5.2 1.2-8 1.2s-5.5-.4-8-1.2l.6-1.8c.9-2.7 1.7-5.3 2.4-7.6 1.6.3 3.3.5 5 .5 1.7 0 3.4-.2 5-.5.7 2.2 1.5 4.8 2.4 7.5.2.7.4 1.3.6 1.9z"/><path fill="#8d6c9f" d="M55 59H9c-1.1 0-2-.9-2-2v-2.8c0-.2 0-.4.1-.6l5.7-18.2c.3-.8 1-1.4 1.9-1.4H19v2h-4.3L9 54.2V57h46v-2.8L49.3 36H45v-2h4.3c.9 0 1.6.6 1.9 1.4l5.7 18.2c.1.2.1.4.1.6V57c0 1.1-.9 2-2 2z"/><path fill="#8d6c9f" d="M32 51c-8.6 0-16.1-3.8-16.1-8.2 0-1.2 11.5-37 12.3-39.4.2-1 1.4-1.4 3.8-1.4s3.6.4 3.7 1.4c.9 2.8 12.3 38 12.3 39.4.1 4.4-7.4 8.2-16 8.2zm-14.1-8.2c.1 2.5 6 6.2 14.1 6.2s14-3.7 14.1-6.2c-.5-2-10.8-34.9-12.2-38.6-.3-.1-.9-.2-1.9-.2-1 0-1.6.1-1.9.2-1.5 4.3-11.7 36.6-12.2 38.6z"/><path fill="#8d6c9f" d="M21.4 41.4c-.2 0-.3 0-.5-.1-.5-.3-.6-.9-.4-1.4l1-1.7c.3-.5.9-.6 1.4-.4.5.3.6.9.4 1.4l-1 1.7c-.2.3-.6.5-.9.5zm5.2 2h-.2c-.5-.1-.9-.7-.7-1.2l.5-1.9c.1-.5.7-.9 1.2-.7.5.1.9.7.7 1.2l-.5 1.9c-.2.4-.6.7-1 .7zm5.4.6c-.6 0-1-.4-1-1v-2c0-.6.4-1 1-1s1 .4 1 1v2c0 .6-.4 1-1 1zm5.5-.6c-.5 0-.9-.3-1-.8l-.5-1.9c-.1-.5.2-1.1.7-1.2.5-.1 1.1.2 1.2.7l.5 1.9c.1.5-.2 1.1-.7 1.2-.1.1-.2.1-.2.1zm5.2-2c-.3 0-.7-.2-.9-.5l-1-1.7c-.3-.5-.1-1.1.4-1.4s1.1-.1 1.4.4l1 1.7c.3.5.1 1.1-.4 1.4-.2.1-.4.1-.5.1zm-4.6-9.3c-.4 0-.8-.3-1-.7-.2-.5.1-1.1.6-1.3 1.7-.6 3.2-1.3 4.4-2.3.4-.4 1.1-.3 1.4.1.4.4.3 1.1-.1 1.4-1.3 1.1-3.1 2-5 2.6-.1.1-.2.2-.3.2zM32 33c-4.4 0-8.7-1.4-11.4-3.6-.4-.4-.5-1-.1-1.4.4-.4 1-.5 1.4-.1 2.8 2.3 7.6 3.5 12.1 3.1.6 0 1 .3 1.1.9.1.5-.3 1-.9 1.1H32zm-4.5-10.3h-.1c-.5-.1-.9-.6-.9-1.1l.3-2c.1-.5.6-.9 1.1-.9.5.1.9.6.9 1.1l-.3 2c0 .5-.5.9-1 .9zm4.5.3c-.6 0-1-.4-1-1v-2c0-.6.4-1 1-1s1 .4 1 1v2c0 .6-.4 1-1 1zm4.5-.3c-.5 0-.9-.4-1-.9l-.3-2c-.1-.5.3-1.1.9-1.1.5-.1 1.1.3 1.1.9l.3 2c.1.5-.3 1.1-.9 1.1h-.1zM32 12c-1.8 0-3.5-.3-5.2-.8l.6-1.9c2.9.9 6.1.9 9 .1l.5 1.9c-1.6.5-3.2.7-4.9.7z"/></svg>