<svg xmlns="http://www.w3.org/2000/svg"  viewBox="0 0 64 64" width="64px" height="64px"><path fill="#f7a1c8" d="M19,35h-4.3c-0.4,0-0.8,0.3-1,0.7L8,53.9c0,0.1,0,0.2,0,0.3V57c0,0.6,0.4,1,1,1h46c0.6,0,1-0.4,1-1v-2.8 c0-0.1,0-0.2,0-0.3l-5.7-18.2c-0.1-0.4-0.5-0.7-1-0.7H45"/><path fill="#fbd" d="M32,3c-1.5,0-2.8,0.2-2.8,0.6c-0.8,2.2-12.3,38.3-12.3,39.2c0,3.5,6.8,7.2,15.1,7.2s15.1-3.7,15.1-7.2 c0-0.8-11.4-37-12.3-39.2C34.8,3.2,33.5,3,32,3L32,3z"/><path fill="#fff8ee" d="M42.8 28.6c.9 3 1.8 5.9 2.5 8.2C43.5 39.6 38.2 42 32 42c-6.2 0-11.5-2.4-13.3-5.2.7-2.3 1.6-5.2 2.6-8.2C23.6 30.5 27.5 32 32 32 36.5 32 40.4 30.5 42.8 28.6zM28.8 5C28.9 4.7 29 4.4 29 4.2 29 4.4 28.9 4.7 28.8 5zM40 19.8c-2.4.8-5.2 1.2-8 1.2-2.8 0-5.5-.4-8-1.2.2-.6.4-1.2.6-1.8.9-2.7 1.7-5.3 2.4-7.6 1.6.3 3.3.5 5 .5 1.7 0 3.4-.2 5-.5.7 2.2 1.5 4.8 2.4 7.5C39.6 18.6 39.8 19.2 40 19.8z"/><path fill="#8d6c9f" d="M55,59H9c-1.1,0-2-0.9-2-2v-2.8c0-0.2,0-0.4,0.1-0.6l5.7-18.2c0.3-0.8,1-1.4,1.9-1.4H19v2h-4.3L9,54.2V57h46 v-2.8L49.3,36H45v-2h4.3c0.9,0,1.6,0.6,1.9,1.4l5.7,18.2c0.1,0.2,0.1,0.4,0.1,0.6V57C57,58.1,56.1,59,55,59z"/><path fill="#8d6c9f" d="M32,51c-8.6,0-16.1-3.8-16.1-8.2c0-1.2,11.5-37,12.3-39.4C28.4,2.4,29.6,2,32,2c2.4,0,3.6,0.4,3.7,1.4 c0.9,2.8,12.3,38,12.3,39.4C48.1,47.2,40.6,51,32,51z M17.9,42.8C18,45.3,23.9,49,32,49c8.1,0,14-3.7,14.1-6.2 C45.6,40.8,35.3,7.9,33.9,4.2C33.6,4.1,33,4,32,4c-1,0-1.6,0.1-1.9,0.2C28.6,8.5,18.4,40.8,17.9,42.8z"/><path fill="#8d6c9f" d="M21.4 41.4c-.2 0-.3 0-.5-.1-.5-.3-.6-.9-.4-1.4l1-1.7c.3-.5.9-.6 1.4-.4.5.3.6.9.4 1.4l-1 1.7C22.1 41.2 21.7 41.4 21.4 41.4zM26.6 43.4c-.1 0-.2 0-.2 0-.5-.1-.9-.7-.7-1.2l.5-1.9c.1-.5.7-.9 1.2-.7.5.1.9.7.7 1.2l-.5 1.9C27.4 43.1 27 43.4 26.6 43.4zM32 44c-.6 0-1-.4-1-1l0-2c0-.6.4-1 1-1h0c.6 0 1 .4 1 1l0 2C33 43.6 32.6 44 32 44L32 44zM37.5 43.4c-.5 0-.9-.3-1-.8L36 40.7c-.1-.5.2-1.1.7-1.2.5-.1 1.1.2 1.2.7l.5 1.9c.1.5-.2 1.1-.7 1.2C37.6 43.4 37.5 43.4 37.5 43.4zM42.7 41.4c-.3 0-.7-.2-.9-.5l-1-1.7c-.3-.5-.1-1.1.4-1.4s1.1-.1 1.4.4l1 1.7c.3.5.1 1.1-.4 1.4C43 41.4 42.8 41.4 42.7 41.4zM38.1 32.1c-.4 0-.8-.3-1-.7-.2-.5.1-1.1.6-1.3 1.7-.6 3.2-1.3 4.4-2.3.4-.4 1.1-.3 1.4.1.4.4.3 1.1-.1 1.4-1.3 1.1-3.1 2-5 2.6C38.3 32 38.2 32.1 38.1 32.1zM32 33c-4.4 0-8.7-1.4-11.4-3.6-.4-.4-.5-1-.1-1.4.4-.4 1-.5 1.4-.1 2.8 2.3 7.6 3.5 12.1 3.1.6 0 1 .3 1.1.9.1.5-.3 1-.9 1.1C33.4 33 32.7 33 32 33zM27.5 22.7c0 0-.1 0-.1 0-.5-.1-.9-.6-.9-1.1l.3-2c.1-.5.6-.9 1.1-.9.5.1.9.6.9 1.1l-.3 2C28.5 22.3 28 22.7 27.5 22.7zM32 23c-.6 0-1-.4-1-1l0-2c0-.6.4-1 1-1h0c.6 0 1 .4 1 1l0 2C33 22.6 32.6 23 32 23 32 23 32 23 32 23zM36.5 22.7c-.5 0-.9-.4-1-.9l-.3-2c-.1-.5.3-1.1.9-1.1.5-.1 1.1.3 1.1.9l.3 2c.1.5-.3 1.1-.9 1.1C36.6 22.7 36.6 22.7 36.5 22.7zM32 12c-1.8 0-3.5-.3-5.2-.8l.6-1.9c2.9.9 6.1.9 9 .1l.5 1.9C35.3 11.8 33.7 12 32 12z"/></svg>